<mxfile host="Electron" modified="2023-06-27T10:33:46.412Z" agent="Mozilla/5.0 (Windows NT 10.0; Win64; x64) AppleWebKit/537.36 (KHTML, like Gecko) draw.io/21.5.0 Chrome/112.0.5615.204 Electron/24.5.1 Safari/537.36" etag="VaLcxOmViw7Kr4rJPf1F" version="21.5.0" type="device">
  <diagram name="Pagina-1" id="C9sLu2BPmtLkDduTvU1i">
    <mxGraphModel dx="1925" dy="828" grid="1" gridSize="10" guides="1" tooltips="1" connect="1" arrows="1" fold="1" page="1" pageScale="1" pageWidth="827" pageHeight="1169" math="0" shadow="0">
      <root>
        <mxCell id="0" />
        <mxCell id="1" parent="0" />
        <mxCell id="-ecJ33yMkQ9esisZDHgy-3" style="edgeStyle=orthogonalEdgeStyle;rounded=0;orthogonalLoop=1;jettySize=auto;html=1;strokeColor=default;endArrow=none;endFill=0;" edge="1" parent="1" source="-ecJ33yMkQ9esisZDHgy-2">
          <mxGeometry relative="1" as="geometry">
            <mxPoint x="290" y="420" as="targetPoint" />
          </mxGeometry>
        </mxCell>
        <mxCell id="-ecJ33yMkQ9esisZDHgy-4" style="edgeStyle=orthogonalEdgeStyle;rounded=0;orthogonalLoop=1;jettySize=auto;html=1;endArrow=none;endFill=0;" edge="1" parent="1" source="-ecJ33yMkQ9esisZDHgy-2">
          <mxGeometry relative="1" as="geometry">
            <mxPoint x="420" y="280" as="targetPoint" />
          </mxGeometry>
        </mxCell>
        <mxCell id="-ecJ33yMkQ9esisZDHgy-6" style="edgeStyle=orthogonalEdgeStyle;rounded=0;orthogonalLoop=1;jettySize=auto;html=1;endArrow=none;endFill=0;" edge="1" parent="1" source="-ecJ33yMkQ9esisZDHgy-2">
          <mxGeometry relative="1" as="geometry">
            <mxPoint x="420" y="520" as="targetPoint" />
          </mxGeometry>
        </mxCell>
        <mxCell id="-ecJ33yMkQ9esisZDHgy-2" value="inquinamento" style="rhombus;whiteSpace=wrap;html=1;rounded=0;" vertex="1" parent="1">
          <mxGeometry x="350" y="380" width="140" height="80" as="geometry" />
        </mxCell>
        <mxCell id="-ecJ33yMkQ9esisZDHgy-9" style="edgeStyle=orthogonalEdgeStyle;rounded=0;orthogonalLoop=1;jettySize=auto;html=1;endArrow=oval;endFill=0;" edge="1" parent="1" source="-ecJ33yMkQ9esisZDHgy-8">
          <mxGeometry relative="1" as="geometry">
            <mxPoint x="560" y="250" as="targetPoint" />
          </mxGeometry>
        </mxCell>
        <mxCell id="-ecJ33yMkQ9esisZDHgy-11" style="edgeStyle=orthogonalEdgeStyle;rounded=0;orthogonalLoop=1;jettySize=auto;html=1;endArrow=oval;endFill=0;" edge="1" parent="1" source="-ecJ33yMkQ9esisZDHgy-8">
          <mxGeometry relative="1" as="geometry">
            <mxPoint x="421" y="170" as="targetPoint" />
            <Array as="points">
              <mxPoint x="420" y="195" />
              <mxPoint x="421" y="195" />
            </Array>
          </mxGeometry>
        </mxCell>
        <mxCell id="-ecJ33yMkQ9esisZDHgy-14" style="edgeStyle=orthogonalEdgeStyle;rounded=0;orthogonalLoop=1;jettySize=auto;html=1;entryX=1;entryY=0.5;entryDx=0;entryDy=0;entryPerimeter=0;endArrow=oval;endFill=0;" edge="1" parent="1" source="-ecJ33yMkQ9esisZDHgy-8" target="-ecJ33yMkQ9esisZDHgy-13">
          <mxGeometry relative="1" as="geometry" />
        </mxCell>
        <mxCell id="-ecJ33yMkQ9esisZDHgy-17" style="edgeStyle=orthogonalEdgeStyle;rounded=0;orthogonalLoop=1;jettySize=auto;html=1;exitX=1;exitY=0;exitDx=0;exitDy=0;endArrow=oval;endFill=0;" edge="1" parent="1" source="-ecJ33yMkQ9esisZDHgy-8">
          <mxGeometry relative="1" as="geometry">
            <mxPoint x="500" y="170" as="targetPoint" />
          </mxGeometry>
        </mxCell>
        <mxCell id="-ecJ33yMkQ9esisZDHgy-29" style="edgeStyle=orthogonalEdgeStyle;rounded=0;orthogonalLoop=1;jettySize=auto;html=1;exitX=0;exitY=0;exitDx=0;exitDy=0;endArrow=oval;endFill=0;" edge="1" parent="1" source="-ecJ33yMkQ9esisZDHgy-8">
          <mxGeometry relative="1" as="geometry">
            <mxPoint x="310" y="180" as="targetPoint" />
          </mxGeometry>
        </mxCell>
        <mxCell id="-ecJ33yMkQ9esisZDHgy-31" style="edgeStyle=orthogonalEdgeStyle;rounded=0;orthogonalLoop=1;jettySize=auto;html=1;exitX=1;exitY=1;exitDx=0;exitDy=0;endArrow=oval;endFill=0;" edge="1" parent="1" source="-ecJ33yMkQ9esisZDHgy-8">
          <mxGeometry relative="1" as="geometry">
            <mxPoint x="540" y="320" as="targetPoint" />
          </mxGeometry>
        </mxCell>
        <mxCell id="-ecJ33yMkQ9esisZDHgy-33" style="edgeStyle=orthogonalEdgeStyle;rounded=0;orthogonalLoop=1;jettySize=auto;html=1;exitX=0;exitY=1;exitDx=0;exitDy=0;endArrow=oval;endFill=0;" edge="1" parent="1" source="-ecJ33yMkQ9esisZDHgy-8">
          <mxGeometry relative="1" as="geometry">
            <mxPoint x="280" y="310" as="targetPoint" />
          </mxGeometry>
        </mxCell>
        <mxCell id="-ecJ33yMkQ9esisZDHgy-44" style="edgeStyle=orthogonalEdgeStyle;rounded=0;orthogonalLoop=1;jettySize=auto;html=1;exitX=1;exitY=0.25;exitDx=0;exitDy=0;endArrow=oval;endFill=0;" edge="1" parent="1" source="-ecJ33yMkQ9esisZDHgy-8">
          <mxGeometry relative="1" as="geometry">
            <mxPoint x="560" y="210" as="targetPoint" />
          </mxGeometry>
        </mxCell>
        <mxCell id="-ecJ33yMkQ9esisZDHgy-8" value="ALIMENTAZIONE" style="rounded=0;whiteSpace=wrap;html=1;" vertex="1" parent="1">
          <mxGeometry x="360" y="220" width="120" height="60" as="geometry" />
        </mxCell>
        <mxCell id="-ecJ33yMkQ9esisZDHgy-10" value="benzina" style="text;html=1;align=center;verticalAlign=middle;resizable=0;points=[];autosize=1;strokeColor=none;fillColor=none;rounded=0;" vertex="1" parent="1">
          <mxGeometry x="570" y="235" width="70" height="30" as="geometry" />
        </mxCell>
        <mxCell id="-ecJ33yMkQ9esisZDHgy-12" value="diesel" style="text;html=1;align=center;verticalAlign=middle;resizable=0;points=[];autosize=1;strokeColor=none;fillColor=none;rounded=0;" vertex="1" parent="1">
          <mxGeometry x="395" y="130" width="50" height="30" as="geometry" />
        </mxCell>
        <mxCell id="-ecJ33yMkQ9esisZDHgy-13" value="ibrido benzina" style="text;html=1;align=center;verticalAlign=middle;resizable=0;points=[];autosize=1;strokeColor=none;fillColor=none;rounded=0;" vertex="1" parent="1">
          <mxGeometry x="225" y="235" width="100" height="30" as="geometry" />
        </mxCell>
        <mxCell id="-ecJ33yMkQ9esisZDHgy-16" value="(BEV)full electric" style="text;html=1;align=center;verticalAlign=middle;resizable=0;points=[];autosize=1;strokeColor=none;fillColor=none;" vertex="1" parent="1">
          <mxGeometry x="455" y="140" width="110" height="30" as="geometry" />
        </mxCell>
        <mxCell id="-ecJ33yMkQ9esisZDHgy-19" style="edgeStyle=orthogonalEdgeStyle;rounded=0;orthogonalLoop=1;jettySize=auto;html=1;endArrow=oval;endFill=0;" edge="1" parent="1" source="-ecJ33yMkQ9esisZDHgy-18">
          <mxGeometry relative="1" as="geometry">
            <mxPoint x="570" y="560" as="targetPoint" />
          </mxGeometry>
        </mxCell>
        <mxCell id="-ecJ33yMkQ9esisZDHgy-20" style="edgeStyle=orthogonalEdgeStyle;rounded=0;orthogonalLoop=1;jettySize=auto;html=1;endArrow=oval;endFill=0;" edge="1" parent="1" source="-ecJ33yMkQ9esisZDHgy-18">
          <mxGeometry relative="1" as="geometry">
            <mxPoint x="420" y="650" as="targetPoint" />
          </mxGeometry>
        </mxCell>
        <mxCell id="-ecJ33yMkQ9esisZDHgy-21" style="edgeStyle=orthogonalEdgeStyle;rounded=0;orthogonalLoop=1;jettySize=auto;html=1;endArrow=oval;endFill=0;" edge="1" parent="1" source="-ecJ33yMkQ9esisZDHgy-18">
          <mxGeometry relative="1" as="geometry">
            <mxPoint x="280" y="550" as="targetPoint" />
          </mxGeometry>
        </mxCell>
        <mxCell id="-ecJ33yMkQ9esisZDHgy-25" style="edgeStyle=orthogonalEdgeStyle;rounded=0;orthogonalLoop=1;jettySize=auto;html=1;exitX=0;exitY=1;exitDx=0;exitDy=0;endArrow=oval;endFill=0;" edge="1" parent="1" source="-ecJ33yMkQ9esisZDHgy-18">
          <mxGeometry relative="1" as="geometry">
            <mxPoint x="270" y="630" as="targetPoint" />
          </mxGeometry>
        </mxCell>
        <mxCell id="-ecJ33yMkQ9esisZDHgy-26" style="edgeStyle=orthogonalEdgeStyle;rounded=0;orthogonalLoop=1;jettySize=auto;html=1;exitX=1;exitY=1;exitDx=0;exitDy=0;endArrow=oval;endFill=0;" edge="1" parent="1" source="-ecJ33yMkQ9esisZDHgy-18">
          <mxGeometry relative="1" as="geometry">
            <mxPoint x="580" y="620" as="targetPoint" />
          </mxGeometry>
        </mxCell>
        <mxCell id="-ecJ33yMkQ9esisZDHgy-18" value="EMISSIONI" style="rounded=0;whiteSpace=wrap;html=1;" vertex="1" parent="1">
          <mxGeometry x="360" y="520" width="120" height="60" as="geometry" />
        </mxCell>
        <mxCell id="-ecJ33yMkQ9esisZDHgy-22" value="ossidi di azoto (Nox)" style="text;html=1;align=center;verticalAlign=middle;resizable=0;points=[];autosize=1;strokeColor=none;fillColor=none;" vertex="1" parent="1">
          <mxGeometry x="150" y="535" width="130" height="30" as="geometry" />
        </mxCell>
        <mxCell id="-ecJ33yMkQ9esisZDHgy-23" value="monossido di carbonio (CO)" style="text;html=1;align=center;verticalAlign=middle;resizable=0;points=[];autosize=1;strokeColor=none;fillColor=none;" vertex="1" parent="1">
          <mxGeometry x="335" y="650" width="170" height="30" as="geometry" />
        </mxCell>
        <mxCell id="-ecJ33yMkQ9esisZDHgy-24" value="PM10&lt;br&gt;" style="text;html=1;align=center;verticalAlign=middle;resizable=0;points=[];autosize=1;strokeColor=none;fillColor=none;" vertex="1" parent="1">
          <mxGeometry x="565" y="548" width="50" height="30" as="geometry" />
        </mxCell>
        <mxCell id="-ecJ33yMkQ9esisZDHgy-27" value="PM2,5" style="text;html=1;align=center;verticalAlign=middle;resizable=0;points=[];autosize=1;strokeColor=none;fillColor=none;" vertex="1" parent="1">
          <mxGeometry x="240" y="628" width="60" height="30" as="geometry" />
        </mxCell>
        <mxCell id="-ecJ33yMkQ9esisZDHgy-28" value="CO2" style="text;html=1;align=center;verticalAlign=middle;resizable=0;points=[];autosize=1;strokeColor=none;fillColor=none;" vertex="1" parent="1">
          <mxGeometry x="565" y="620" width="50" height="30" as="geometry" />
        </mxCell>
        <mxCell id="-ecJ33yMkQ9esisZDHgy-30" value="ibrido diesel" style="text;html=1;align=center;verticalAlign=middle;resizable=0;points=[];autosize=1;strokeColor=none;fillColor=none;" vertex="1" parent="1">
          <mxGeometry x="265" y="148" width="90" height="30" as="geometry" />
        </mxCell>
        <mxCell id="-ecJ33yMkQ9esisZDHgy-32" value="GPL&lt;br&gt;" style="text;html=1;align=center;verticalAlign=middle;resizable=0;points=[];autosize=1;strokeColor=none;fillColor=none;" vertex="1" parent="1">
          <mxGeometry x="515" y="318" width="50" height="30" as="geometry" />
        </mxCell>
        <mxCell id="-ecJ33yMkQ9esisZDHgy-34" value="metano" style="text;html=1;align=center;verticalAlign=middle;resizable=0;points=[];autosize=1;strokeColor=none;fillColor=none;" vertex="1" parent="1">
          <mxGeometry x="250" y="308" width="60" height="30" as="geometry" />
        </mxCell>
        <mxCell id="-ecJ33yMkQ9esisZDHgy-36" style="edgeStyle=orthogonalEdgeStyle;rounded=0;orthogonalLoop=1;jettySize=auto;html=1;endArrow=oval;endFill=0;" edge="1" parent="1" source="-ecJ33yMkQ9esisZDHgy-35">
          <mxGeometry relative="1" as="geometry">
            <mxPoint x="180" y="320" as="targetPoint" />
          </mxGeometry>
        </mxCell>
        <mxCell id="-ecJ33yMkQ9esisZDHgy-38" style="edgeStyle=orthogonalEdgeStyle;rounded=0;orthogonalLoop=1;jettySize=auto;html=1;endArrow=oval;endFill=0;" edge="1" parent="1" source="-ecJ33yMkQ9esisZDHgy-35">
          <mxGeometry relative="1" as="geometry">
            <mxPoint x="100" y="420" as="targetPoint" />
          </mxGeometry>
        </mxCell>
        <mxCell id="-ecJ33yMkQ9esisZDHgy-40" style="edgeStyle=orthogonalEdgeStyle;rounded=0;orthogonalLoop=1;jettySize=auto;html=1;endArrow=oval;endFill=0;" edge="1" parent="1" source="-ecJ33yMkQ9esisZDHgy-35">
          <mxGeometry relative="1" as="geometry">
            <mxPoint x="230" y="490" as="targetPoint" />
          </mxGeometry>
        </mxCell>
        <mxCell id="-ecJ33yMkQ9esisZDHgy-42" style="edgeStyle=orthogonalEdgeStyle;rounded=0;orthogonalLoop=1;jettySize=auto;html=1;exitX=0;exitY=1;exitDx=0;exitDy=0;endArrow=oval;endFill=0;" edge="1" parent="1" source="-ecJ33yMkQ9esisZDHgy-35">
          <mxGeometry relative="1" as="geometry">
            <mxPoint x="110" y="490" as="targetPoint" />
          </mxGeometry>
        </mxCell>
        <mxCell id="-ecJ33yMkQ9esisZDHgy-35" value="LUOGHI IN ANALISI" style="rounded=0;whiteSpace=wrap;html=1;" vertex="1" parent="1">
          <mxGeometry x="170" y="390" width="120" height="60" as="geometry" />
        </mxCell>
        <mxCell id="-ecJ33yMkQ9esisZDHgy-37" value="sicilia" style="text;html=1;align=center;verticalAlign=middle;resizable=0;points=[];autosize=1;strokeColor=none;fillColor=none;" vertex="1" parent="1">
          <mxGeometry x="155" y="288" width="50" height="30" as="geometry" />
        </mxCell>
        <mxCell id="-ecJ33yMkQ9esisZDHgy-39" value="emilia romagna" style="text;html=1;align=center;verticalAlign=middle;resizable=0;points=[];autosize=1;strokeColor=none;fillColor=none;" vertex="1" parent="1">
          <mxGeometry x="-10" y="405" width="110" height="30" as="geometry" />
        </mxCell>
        <mxCell id="-ecJ33yMkQ9esisZDHgy-41" value="campania" style="text;html=1;align=center;verticalAlign=middle;resizable=0;points=[];autosize=1;strokeColor=none;fillColor=none;" vertex="1" parent="1">
          <mxGeometry x="190" y="488" width="80" height="30" as="geometry" />
        </mxCell>
        <mxCell id="-ecJ33yMkQ9esisZDHgy-43" value="milano" style="text;html=1;align=center;verticalAlign=middle;resizable=0;points=[];autosize=1;strokeColor=none;fillColor=none;" vertex="1" parent="1">
          <mxGeometry x="80" y="488" width="60" height="30" as="geometry" />
        </mxCell>
        <mxCell id="-ecJ33yMkQ9esisZDHgy-45" value="PHEV (ibride plug in)" style="text;html=1;align=center;verticalAlign=middle;resizable=0;points=[];autosize=1;strokeColor=none;fillColor=none;" vertex="1" parent="1">
          <mxGeometry x="505" y="178" width="140" height="30" as="geometry" />
        </mxCell>
      </root>
    </mxGraphModel>
  </diagram>
</mxfile>
